<?xml version="1.0" standalone="no"?><!DOCTYPE svg PUBLIC "-//W3C//DTD SVG 1.1//EN" "http://www.w3.org/Graphics/SVG/1.1/DTD/svg11.dtd"><svg t="1647096571217" class="icon" viewBox="0 0 1024 1024" version="1.1" xmlns="http://www.w3.org/2000/svg" p-id="3911" xmlns:xlink="http://www.w3.org/1999/xlink" width="256" height="256"><defs><style type="text/css"></style></defs><path d="M512 0c282.774588 0 512 229.225412 512 512s-229.225412 512-512 512S0 794.774588 0 512 229.225412 0 512 0z m-115.380706 224.015059c-6.324706-5.12-14.968471-7.137882-23.582118-1.385412l-3.222588 3.192471-1.897412 2.349176c-4.427294 6.806588-3.794824 17.558588 1.897412 23.250824l44.815059 44.815058h-96.015059l-5.571764 0.451765c-51.862588 5.632-93.605647 46.200471-93.605648 98.725647v246.422588l0.150589 5.270589c2.951529 48.941176 46.501647 90.714353 99.026823 90.714353h16.022588l0.180706 3.764706c1.927529 17.076706 16.865882 28.250353 31.804236 28.250352 15.992471 0 32.015059-16.022588 32.015058-32.015058h227.177412l0.210824 3.764706c1.957647 17.076706 17.076706 28.250353 34.996706 28.250352 15.992471 0 28.792471-12.8 32.015058-32.015058h12.8l5.571765-0.150589a99.749647 99.749647 0 0 0 93.605647-99.056941V395.444706l-0.481882-5.571765a101.918118 101.918118 0 0 0-101.918118-90.413176h-99.177412l44.784942-44.815059 1.897411-2.349177c4.427294-6.806588 3.794824-17.558588-1.897411-23.250823-6.384941-6.384941-19.184941-6.384941-25.6 0l-76.8 76.8h-70.384942l-76.8-79.992471z m302.802824 126.614588c19.215059 0 35.207529 15.992471 38.4 38.4v249.584941l-0.752942 4.969412c-4.216471 22.287059-16.745412 33.430588-37.647058 33.430588H325.029647l-3.794823-0.210823c-17.468235-1.927529-31.623529-17.287529-34.635295-38.189177v-249.584941l0.210824-3.614118c1.837176-17.92 17.227294-34.785882 38.219294-34.785882z m-188.80753 211.184941c-12.8 12.8-12.8 32.015059-35.177412 32.015059-9.637647 0-22.407529-15.992471-22.407529-15.992471-3.192471-6.415059-6.415059-6.415059-9.607529-6.415058-6.384941 0-9.607529 6.415059-6.384942 12.8v6.415058c9.577412 15.962353 25.6 28.792471 44.784942 28.792471 12.8 0 22.407529-6.415059 32.015058-15.992471 6.384941 9.577412 19.184941 15.962353 31.984942 15.962353 19.215059 0 38.4-12.769882 44.815058-28.762353v-6.415058c-3.222588-9.607529-6.415059-15.992471-12.8-12.8-3.222588 0-9.637647 3.192471-9.637647 6.415058 0 0-9.577412 15.962353-22.377411 15.962353-22.407529 0-22.407529-15.962353-35.20753-31.984941z m-64-121.584941l-124.777412 22.407529 9.577412 44.784942 124.80753-22.40753-9.60753-44.784941z m128 0l-9.577412 44.784941 121.584942 22.40753 12.8-44.784942-124.80753-22.407529z" p-id="3912" fill="#f7539f"></path></svg>